<svg xmlns="http://www.w3.org/2000/svg" viewBox="0 0 128 128" width="64" height="64"><style>tspan { white-space:pre } .shp0 { fill: #000000;stroke: #ffffff;paint-order:stroke fill markers;stroke-width: 6 }</style><path id="Layer" fill-rule="evenodd" class="shp0" d="M51.5 99c-26.22 0-47.5-21.28-47.5-47.5s21.28-47.5 47.5-47.5 47.5 21.28 47.5 47.5c0 12.21-4.62 23.35-12.2 31.77l37.2 37.2-3.53 3.53-37.21-37.2c-8.41 7.58-19.55 12.2-31.76 12.2zm0-90c-23.45 0-42.5 19.05-42.5 42.5s19.05 42.5 42.5 42.5 42.5-19.05 42.5-42.5c0-23.46-19.05-42.5-42.5-42.5zm-22.5 40h20v-20h5v20h20v5h-20v20h-5v-20h-20v-5z"/></svg>